Coordinates
version=1
nRows=14
nColumns=40
inDegrees=yes

Units are S.I. units (second, meters, Newtons, ...)
Angles are in degrees.

endheader
time	pelvis_tilt	pelvis_list	pelvis_rotation	pelvis_tx	pelvis_ty	pelvis_tz	hip_flexion_r	hip_adduction_r	hip_rotation_r	knee_angle_r	knee_angle_r_beta	ankle_angle_r	subtalar_angle_r	mtp_angle_r	hip_flexion_l	hip_adduction_l	hip_rotation_l	knee_angle_l	knee_angle_l_beta	ankle_angle_l	subtalar_angle_l	mtp_angle_l	lumbar_extension	lumbar_bending	lumbar_rotation	arm_flex_r	arm_add_r	arm_rot_r	elbow_flex_r	pro_sup_r	wrist_flex_r	wrist_dev_r	arm_flex_l	arm_add_l	arm_rot_l	elbow_flex_l	pro_sup_l	wrist_flex_l	wrist_dev_l
     33.82878571	     -4.63313314	     -3.27026822	     -5.51799971	      1.04676165	      0.93025289	      0.39535897	     23.42767543	     -1.54050991	    -13.02735330	      9.06145899	      9.06145899	      1.60972863	      8.72119360	      7.84455940	      5.70110047	     -5.05942527	    -16.22372648	     14.13262523	     14.13262523	     12.63046051	     -7.81608745	     -9.02948815	     -9.93300628	      3.41486902	      0.72669033	     -9.56863171	    -11.40590993	     -3.63260158	     29.37401130	     46.18553457	      0.00000000	      0.00000000	     20.06141178	    -21.89534511	    -15.47663886	     56.47417769	     47.64050447	      0.00000000	      0.00000000
     33.84257143	     -4.54270413	     -3.15010954	     -5.56490876	      1.04849785	      0.92965230	      0.39699879	     23.04414106	     -1.48692864	    -13.03654749	      9.84954821	      9.84954821	      1.64120132	      8.08586411	      7.14744726	      4.87167799	     -4.92287804	    -16.33630594	     13.73962193	     13.73962193	     12.96251277	     -7.58915947	     -9.01065646	     -9.75853554	      3.38789339	      0.79644284	     -9.14731861	    -11.53828799	     -3.60815141	     29.53966405	     46.17990988	      0.00000000	      0.00000000	     19.65453069	    -21.65915113	    -15.50683517	     56.30509690	     47.63048076	      0.00000000	      0.00000000
     33.85635714	     -4.47396874	     -3.15911622	     -5.52615783	      1.05039763	      0.92906705	      0.39865613	     22.54265924	     -1.35450556	    -13.06125403	     10.61547266	     10.61547266	      1.67118420	      7.61915695	      6.70215737	      4.18758646	     -4.96828537	    -16.30912274	     13.59602287	     13.59602287	     13.29846675	     -7.51076412	     -9.03288772	     -9.53976032	      3.55506867	      0.91937684	     -8.66932188	    -11.67302982	     -3.61985608	     29.72887723	     46.17683558	      0.00000000	      0.00000000	     19.09859898	    -21.13356049	    -15.43094834	     56.09878944	     47.61359891	      0.00000000	      0.00000000
     33.87014286	     -4.26498333	     -2.91254578	     -5.52290352	      1.05255796	      0.92828701	      0.40065094	     22.10533690	     -1.39623099	    -12.00448038	     11.64261471	     11.64261471	      0.08028239	      5.36056301	      0.56736260	      3.27104681	     -4.75451386	    -16.62829481	     13.36781217	     13.36781217	     14.16857010	     -6.62636663	     -8.05089260	     -9.42591817	      3.33807924	      0.55698209	     -8.03588078	    -11.87592904	     -3.35535284	     30.33378571	     46.13267172	      0.00000000	      0.00000000	     18.20767655	    -20.92397262	    -16.73664651	     56.14982776	     47.66696434	      0.00000000	      0.00000000
     33.88392857	     -4.09642225	     -2.82365833	     -5.43966325	      1.05476618	      0.92767135	      0.40253509	     21.82015601	     -1.46646254	    -11.61865432	     13.06380494	     13.06380494	      0.43865562	      4.54427795	     -0.26723953	      2.45275691	     -4.70153926	    -16.64705796	     13.19338935	     13.19338935	     14.57862905	     -6.35513495	     -7.84747270	     -9.24969843	      3.37198985	      0.54440372	     -7.39371688	    -12.06594272	     -3.34599115	     30.66538676	     46.12258029	      0.00000000	      0.00000000	     17.53100092	    -20.57866759	    -16.71933842	     55.73838925	     47.64299585	      0.00000000	      0.00000000
     33.89771429	     -3.90136647	     -2.80058687	     -5.32796878	      1.05692957	      0.92713350	      0.40460397	     21.43891148	     -1.37662913	    -10.79775200	     14.20092541	     14.20092541	      0.44949646	      3.02773661	     -1.92438498	      1.80307754	     -4.80766903	    -16.69446369	     13.45843622	     13.45843622	     15.53520760	     -5.86708974	     -6.60677089	     -9.16640077	      3.48746414	      0.43209378	     -6.69896297	    -12.29276620	     -3.24281544	     31.32547353	     46.08929035	      0.00000000	      0.00000000	     16.75942913	    -20.14041151	    -17.16190903	     55.25762035	     47.62978181	      0.00000000	      0.00000000
     33.91150000	     -3.66658569	     -2.85618743	     -5.16745657	      1.05914119	      0.92672289	      0.40678891	     21.11787593	     -1.30831767	    -10.42388745	     15.49772445	     15.49772445	      1.11018847	      2.30953693	     -2.47212779	      1.09209859	     -4.98980833	    -16.57032778	     13.62378731	     13.62378731	     15.91905906	     -5.81841318	     -6.38451515	     -9.13024595	      3.61203852	      0.44009627	     -5.95191678	    -12.55586599	     -3.30951287	     31.72061109	     46.08297778	      0.00000000	      0.00000000	     16.03836521	    -19.74346520	    -17.12629259	     54.76142831	     47.60698170	      0.00000000	      0.00000000
     33.92528571	     -3.47963594	     -2.87614469	     -5.00527411	      1.06124781	      0.92639689	      0.40900796	     20.87321518	     -1.23237578	     -9.85671665	     16.66402296	     16.66402296	      1.77515674	      1.29243026	     -2.92611601	      0.59949431	     -5.18748938	    -16.38720330	     14.09619003	     14.09619003	     16.35453623	     -5.87982041	     -5.91735816	     -9.02176587	      3.80248655	      0.35083005	     -5.06649651	    -12.77112711	     -3.40052838	     32.28331875	     46.07192637	      0.00000000	      0.00000000	     15.19157163	    -19.33315158	    -17.14395855	     54.08112598	     47.58425920	      0.00000000	      0.00000000
     33.93907143	     -3.38844281	     -2.96910403	     -4.81615074	      1.06317417	      0.92624235	      0.41151160	     20.61643690	     -0.95734114	     -9.02784644	     17.46051730	     17.46051730	      2.32012665	     -0.25513294	     -3.21335001	      0.54498983	     -5.64292927	    -16.35093207	     15.31989457	     15.31989457	     17.97696473	     -5.25957664	     -2.87291175	     -8.83876089	      4.02670646	      0.28812789	     -4.33472378	    -13.01407924	     -3.42897965	     33.40423903	     46.02502755	      0.00000000	      0.00000000	     14.48641827	    -18.62432521	    -17.81568235	     52.89591769	     47.57087852	      0.00000000	      0.00000000
     33.95285714	     -3.10378067	     -3.06801628	     -4.63713950	      1.06516400	      0.92653203	      0.41408752	     20.10510099	     -0.79901714	     -8.83446290	     18.14061443	     18.14061443	      3.04976563	     -0.61356252	     -3.53930799	      0.15035088	     -6.01466306	    -16.09489582	     16.12203915	     16.12203915	     18.05660548	     -5.60588877	     -2.83427459	     -8.94137114	      4.23034089	      0.48098229	     -3.34367334	    -13.28516837	     -3.51166466	     33.83065282	     46.02040454	      0.00000000	      0.00000000	     13.67586955	    -17.98241116	    -17.64878606	     52.36961565	     47.53782401	      0.00000000	      0.00000000
     33.96664286	     -3.02224614	     -3.20698771	     -4.35128095	      1.06666062	      0.92655839	      0.41676539	     19.89095572	     -0.54433805	     -8.54354957	     18.85581255	     18.85581255	      3.75143874	     -1.57975415	     -3.70973805	      0.51714339	     -6.60210210	    -15.53107388	     17.87298832	     17.87298832	     18.25788828	     -6.36266088	     -2.62396582	     -8.80309619	      4.50398230	      0.13029887	     -2.12088433	    -13.43964089	     -3.65227859	     34.62678340	     46.00470062	      0.00000000	      0.00000000	     12.73031461	    -17.75876465	    -17.54244245	     51.28228478	     47.49864579	      0.00000000	      0.00000000
     33.98042857	     -2.98872859	     -3.36119614	     -4.08388018	      1.06804621	      0.92678930	      0.41966442	     19.55708559	     -0.21493006	     -8.25690089	     19.20106053	     19.20106053	      4.36476437	     -2.40745577	     -3.72662244	      1.05960736	     -7.24832841	    -14.89107016	     19.82047389	     19.82047389	     18.42860798	     -7.11648327	     -2.27998775	     -8.64961874	      4.70829933	     -0.03328128	     -0.92628140	    -13.62234585	     -3.76037267	     35.50204597	     45.98256920	      0.00000000	      0.00000000	     11.83793773	    -17.31394836	    -17.39108065	     50.01630655	     47.45077779	      0.00000000	      0.00000000
     33.99421429	     -2.67894621	     -3.50699374	     -3.82238157	      1.06939087	      0.92754047	      0.42263500	     18.85569294	      0.05292359	     -8.26556024	     19.42910509	     19.42910509	      4.99422381	     -2.74048331	     -3.88058288	      1.42898135	     -7.90751858	    -14.28931451	     21.96083342	     21.96083342	     18.24314084	     -7.94352491	     -2.34343071	     -8.88586858	      4.87979030	      0.09167348	      0.31608871	    -13.86674076	     -3.84837925	     36.19924975	     45.96811364	      0.00000000	      0.00000000	     11.14727628	    -16.79582392	    -17.20102070	     49.16462371	     47.41136167	      0.00000000	      0.00000000
     34.00800000	     -2.74541629	     -3.64249025	     -3.44442629	      1.07031418	      0.92783502	      0.42553124	     18.48089192	      0.34784707	     -8.30999311	     19.45800265	     19.45800265	      5.46615026	     -3.30110900	     -3.91498815	      2.67137766	     -8.65964718	    -13.36950631	     24.80910506	     24.80910506	     17.88740536	     -9.06594112	     -2.50163708	     -8.62432683	      5.09886146	     -0.17850729	      1.52802836	    -14.01864113	     -3.88142773	     37.45887340	     45.92486923	      0.00000000	      0.00000000	     10.39444525	    -16.37490466	    -16.81396871	     47.32511537	     47.33454843	      0.00000000	      0.00000000
